<?xml version="1.0" encoding="UTF-8" standalone="no"?>
<!DOCTYPE svg PUBLIC "-//W3C//DTD SVG 1.1//EN" "http://www.w3.org/Graphics/SVG/1.1/DTD/svg11.dtd">
<svg width="100%" height="100%" viewBox="0 0 165 164" version="1.1" xmlns="http://www.w3.org/2000/svg" xmlns:xlink="http://www.w3.org/1999/xlink" xml:space="preserve" xmlns:serif="http://www.serif.com/" style="fill-rule:evenodd;clip-rule:evenodd;stroke-linecap:round;stroke-linejoin:round;stroke-miterlimit:1.5;">
    <g transform="matrix(1,0,0,1,-11413.4,-4148.23)">
        <g transform="matrix(1,0,0,1,-0.963255,0)">
            <g transform="matrix(1,0,0,1,9845.01,4053.69)">
                <circle cx="1652.65" cy="176.216" r="79.6" style="fill:none;stroke:rgb(179,179,179);stroke-width:4.17px;"/>
            </g>
        </g>
        <g transform="matrix(1,0,0,1,-0.963255,0)">
            <g transform="matrix(0.88953,0,0,0.88953,9780.26,1997.92)">
                <circle cx="1863.81" cy="2452.32" r="24.414" style="fill:white;stroke:rgb(179,179,179);stroke-width:4.68px;"/>
            </g>
        </g>
        <g transform="matrix(1,0,0,1,-0.963255,0)">
            <g transform="matrix(0.88953,0,0,0.88953,9896.15,1997.92)">
                <circle cx="1863.81" cy="2452.32" r="24.414" style="fill:white;stroke:rgb(179,179,179);stroke-width:4.68px;"/>
            </g>
        </g>
        <g transform="matrix(1,0,0,1,-0.963255,0)">
            <g transform="matrix(0.88953,0,0,0.88953,9780.26,2095.88)">
                <circle cx="1863.81" cy="2452.32" r="24.414" style="fill:white;stroke:rgb(179,179,179);stroke-width:4.68px;"/>
            </g>
        </g>
        <g transform="matrix(1,0,0,1,-0.963255,0)">
            <g transform="matrix(0.88953,0,0,0.88953,9896.15,2095.88)">
                <circle cx="1863.81" cy="2452.32" r="24.414" style="fill:white;stroke:rgb(179,179,179);stroke-width:4.68px;"/>
            </g>
        </g>
        <g transform="matrix(1,0,0,1,-0.963255,0)">
            <g transform="matrix(1,0,0,1,9571.33,1720.01)">
                <rect x="1897.71" y="2465.75" width="53.021" height="84.478" style="fill:white;stroke:rgb(179,179,179);stroke-width:4.17px;"/>
            </g>
        </g>
        <g transform="matrix(1,0,0,1,-0.963255,0)">
            <g transform="matrix(1,0,0,0.855398,9572.13,2087.45)">
                <path d="M1910.85,2466.51L1910.85,2481.92" style="fill:none;stroke:rgb(179,179,179);stroke-width:4.48px;"/>
            </g>
        </g>
        <g transform="matrix(1,0,0,1,-0.963255,0)">
            <g transform="matrix(1,0,0,0.855398,9572.13,2108.93)">
                <path d="M1910.85,2466.51L1910.85,2481.92" style="fill:none;stroke:rgb(179,179,179);stroke-width:4.48px;"/>
            </g>
        </g>
        <g transform="matrix(1,0,0,1,-0.963255,0)">
            <g transform="matrix(1,0,0,0.855398,9596.84,2087.45)">
                <path d="M1910.85,2466.51L1910.85,2481.92" style="fill:none;stroke:rgb(179,179,179);stroke-width:4.48px;"/>
            </g>
        </g>
        <g transform="matrix(1,0,0,1,-0.963255,0)">
            <g transform="matrix(1,0,0,0.855398,9596.84,2108.93)">
                <path d="M1910.85,2466.51L1910.85,2481.92" style="fill:none;stroke:rgb(179,179,179);stroke-width:4.48px;"/>
            </g>
        </g>
        <g transform="matrix(1,0,0,1,-0.963255,0)">
            <g transform="matrix(37.5,0,0,37.5,11425.5,4192.5)">
                <path d="M0.144,-0.068L0.298,-0.068L0.298,-0.557C0.298,-0.571 0.298,-0.586 0.299,-0.601L0.171,-0.492C0.168,-0.489 0.164,-0.487 0.161,-0.486C0.158,-0.485 0.155,-0.484 0.152,-0.484C0.147,-0.484 0.142,-0.485 0.138,-0.487C0.134,-0.489 0.131,-0.492 0.129,-0.495L0.101,-0.534L0.314,-0.718L0.387,-0.718L0.387,-0.068L0.528,-0.068L0.528,-0L0.144,-0L0.144,-0.068Z" style="fill:rgb(179,179,179);fill-rule:nonzero;"/>
            </g>
        </g>
        <g transform="matrix(1,0,0,1,-0.963255,0)">
            <g transform="matrix(37.5,0,0,37.5,11543,4192.38)">
                <path d="M0.301,-0.725C0.331,-0.725 0.359,-0.72 0.386,-0.711C0.412,-0.702 0.435,-0.689 0.454,-0.672C0.473,-0.655 0.488,-0.634 0.499,-0.609C0.51,-0.584 0.516,-0.556 0.516,-0.525C0.516,-0.498 0.511,-0.474 0.504,-0.451C0.496,-0.428 0.485,-0.407 0.471,-0.386C0.457,-0.365 0.442,-0.345 0.424,-0.325C0.406,-0.306 0.387,-0.286 0.367,-0.266L0.179,-0.073C0.192,-0.076 0.205,-0.079 0.219,-0.081C0.233,-0.083 0.246,-0.085 0.259,-0.085L0.499,-0.085C0.508,-0.085 0.516,-0.082 0.522,-0.076C0.527,-0.07 0.53,-0.063 0.53,-0.054L0.53,-0L0.052,-0L0.052,-0.031C0.052,-0.037 0.053,-0.043 0.056,-0.05C0.058,-0.057 0.062,-0.063 0.068,-0.069L0.298,-0.299C0.317,-0.318 0.334,-0.337 0.35,-0.355C0.365,-0.373 0.379,-0.391 0.39,-0.409C0.401,-0.427 0.41,-0.445 0.416,-0.463C0.422,-0.482 0.424,-0.501 0.425,-0.523C0.424,-0.544 0.421,-0.562 0.415,-0.578C0.408,-0.594 0.399,-0.607 0.387,-0.617C0.375,-0.627 0.362,-0.635 0.346,-0.64C0.33,-0.645 0.314,-0.648 0.296,-0.648C0.278,-0.648 0.261,-0.645 0.246,-0.64C0.23,-0.635 0.217,-0.627 0.205,-0.618C0.193,-0.608 0.183,-0.597 0.175,-0.584C0.167,-0.571 0.161,-0.557 0.158,-0.541C0.155,-0.531 0.151,-0.524 0.146,-0.52C0.14,-0.516 0.133,-0.514 0.125,-0.514C0.123,-0.514 0.121,-0.514 0.119,-0.514C0.117,-0.514 0.115,-0.514 0.113,-0.515L0.067,-0.523C0.071,-0.555 0.08,-0.584 0.094,-0.609C0.107,-0.634 0.124,-0.656 0.144,-0.673C0.165,-0.69 0.188,-0.702 0.215,-0.711C0.241,-0.72 0.27,-0.725 0.301,-0.725Z" style="fill:rgb(179,179,179);fill-rule:nonzero;"/>
            </g>
        </g>
        <g transform="matrix(1,0,0,1,-0.963255,0)">
            <g transform="matrix(37.5,0,0,37.5,11426,4290.73)">
                <path d="M0.452,-0.259L0.56,-0.259L0.56,-0.208C0.56,-0.202 0.558,-0.198 0.555,-0.194C0.552,-0.19 0.547,-0.189 0.541,-0.189L0.452,-0.189L0.452,-0L0.373,-0L0.373,-0.189L0.056,-0.189C0.049,-0.189 0.043,-0.19 0.038,-0.194C0.033,-0.198 0.03,-0.203 0.029,-0.209L0.02,-0.254L0.369,-0.717L0.452,-0.717L0.452,-0.259ZM0.373,-0.554C0.373,-0.563 0.373,-0.572 0.374,-0.582C0.374,-0.592 0.375,-0.602 0.377,-0.613L0.117,-0.259L0.373,-0.259L0.373,-0.554Z" style="fill:rgb(179,179,179);fill-rule:nonzero;"/>
            </g>
        </g>
        <g transform="matrix(1,0,0,1,-0.963255,0)">
            <g transform="matrix(37.5,0,0,37.5,11543,4291.03)">
                <path d="M0.31,-0.725C0.34,-0.725 0.368,-0.72 0.394,-0.712C0.42,-0.703 0.442,-0.691 0.46,-0.675C0.479,-0.659 0.493,-0.639 0.504,-0.617C0.514,-0.594 0.519,-0.569 0.519,-0.541C0.519,-0.518 0.516,-0.498 0.51,-0.48C0.504,-0.462 0.496,-0.447 0.485,-0.433C0.474,-0.42 0.461,-0.408 0.446,-0.399C0.431,-0.39 0.413,-0.382 0.395,-0.377C0.441,-0.364 0.476,-0.343 0.5,-0.315C0.523,-0.286 0.535,-0.249 0.535,-0.206C0.535,-0.173 0.529,-0.143 0.516,-0.117C0.504,-0.09 0.487,-0.068 0.465,-0.049C0.443,-0.031 0.418,-0.017 0.389,-0.007C0.36,0.003 0.33,0.008 0.297,0.008C0.259,0.008 0.226,0.003 0.199,-0.006C0.172,-0.016 0.149,-0.029 0.131,-0.046C0.112,-0.062 0.097,-0.082 0.085,-0.105C0.073,-0.128 0.062,-0.152 0.054,-0.179L0.092,-0.195C0.099,-0.198 0.106,-0.2 0.113,-0.2C0.12,-0.2 0.126,-0.198 0.131,-0.195C0.136,-0.192 0.14,-0.188 0.143,-0.182L0.147,-0.173C0.151,-0.163 0.157,-0.152 0.164,-0.14C0.17,-0.128 0.179,-0.117 0.191,-0.106C0.202,-0.095 0.216,-0.086 0.233,-0.079C0.25,-0.072 0.271,-0.068 0.296,-0.068C0.321,-0.068 0.342,-0.072 0.361,-0.08C0.38,-0.088 0.396,-0.099 0.408,-0.112C0.421,-0.125 0.43,-0.139 0.437,-0.156C0.443,-0.171 0.446,-0.187 0.446,-0.203C0.446,-0.222 0.443,-0.24 0.438,-0.256C0.433,-0.272 0.424,-0.286 0.41,-0.298C0.397,-0.309 0.378,-0.318 0.354,-0.325C0.33,-0.332 0.3,-0.335 0.263,-0.335L0.263,-0.4C0.293,-0.4 0.319,-0.403 0.34,-0.41C0.362,-0.416 0.379,-0.424 0.393,-0.436C0.407,-0.447 0.417,-0.46 0.423,-0.475C0.429,-0.49 0.432,-0.507 0.432,-0.526C0.432,-0.547 0.429,-0.565 0.422,-0.58C0.416,-0.595 0.407,-0.608 0.396,-0.618C0.384,-0.628 0.371,-0.635 0.355,-0.641C0.34,-0.646 0.323,-0.648 0.305,-0.648C0.287,-0.648 0.27,-0.645 0.255,-0.64C0.24,-0.635 0.226,-0.627 0.214,-0.618C0.202,-0.608 0.193,-0.597 0.185,-0.584C0.177,-0.571 0.171,-0.556 0.167,-0.541C0.164,-0.531 0.16,-0.524 0.155,-0.52C0.149,-0.516 0.142,-0.514 0.134,-0.514C0.132,-0.514 0.131,-0.514 0.129,-0.514C0.127,-0.514 0.125,-0.514 0.123,-0.515L0.076,-0.523C0.081,-0.555 0.09,-0.584 0.103,-0.609C0.116,-0.634 0.133,-0.656 0.154,-0.673C0.174,-0.69 0.198,-0.702 0.224,-0.711C0.251,-0.72 0.279,-0.725 0.31,-0.725Z" style="fill:rgb(179,179,179);fill-rule:nonzero;"/>
            </g>
        </g>
    </g>
</svg>
