<?xml version="1.0" encoding="UTF-8" standalone="no"?>
<!DOCTYPE svg PUBLIC "-//W3C//DTD SVG 1.1//EN" "http://www.w3.org/Graphics/SVG/1.1/DTD/svg11.dtd">
<svg width="100%" height="100%" viewBox="0 0 164 164" version="1.1" xmlns="http://www.w3.org/2000/svg" xmlns:xlink="http://www.w3.org/1999/xlink" xml:space="preserve" xmlns:serif="http://www.serif.com/" style="fill-rule:evenodd;clip-rule:evenodd;stroke-linejoin:round;stroke-miterlimit:1.5;">
    <g transform="matrix(1,0,0,1,-13994,-414.549)">
        <g transform="matrix(1,0,0,1,-0.963255,0)">
            <g transform="matrix(1,0,0,1,12424,320.016)">
                <path d="M1732.26,175.929C1732.26,176.025 1732.26,176.121 1732.26,176.216C1732.26,220.149 1696.59,255.817 1652.65,255.817C1608.72,255.817 1573.06,220.149 1573.06,176.216C1573.06,132.284 1608.72,96.616 1652.65,96.616C1663.13,96.616 1673.13,98.644 1682.3,102.327" style="fill:none;stroke:rgb(1,178,0);stroke-width:4.17px;"/>
            </g>
        </g>
        <g transform="matrix(1,0,0,1,-0.963255,0)">
            <g transform="matrix(0.0462317,0,0,0.0462317,14018.9,438.443)">
                <path d="M0,1250C0,1940.43 559.57,2500 1250,2500C1940.43,2500 2500,1940.43 2500,1250C2500,559.57 1940.43,0 1250,0C559.57,0 0,559.57 0,1250Z" style="fill:rgb(1,178,0);fill-rule:nonzero;"/>
            </g>
        </g>
        <g transform="matrix(1,0,0,1,-0.963255,0)">
            <g transform="matrix(0.0462317,0,0,0.0462317,14018.9,438.443)">
                <path d="M874.512,1969.61C872.549,1966.67 1159.81,1650 1496.07,1319.61C1829.41,989.219 2112.74,697.051 2113.72,697.051C2102.94,467.656 1934.32,356.865 1782.35,338.232C1686.28,318.623 975.488,293.135 571.572,355.879C496.143,364.961 420.723,374.902 344.521,387.227C341.553,387.715 311.66,418.809 285.049,450.937C257.754,483.887 233.779,517.871 236.26,517.52C466.298,485.047 697.746,463.487 929.824,452.91C1167.17,442.129 1404.91,443.12 1642.16,455.879C1647.06,459.805 1376.48,759.805 1043.13,1086.28C711.768,1411.77 411.768,1712.74 382.354,1748.04C380.4,1987.26 583.33,2079.41 692.158,2100.98C1197.06,2150 1706.81,2132.46 2211.72,2051.08C2211.72,2051.08 2256.54,2000.6 2261.95,1991.34C2267.37,1982.08 2306.19,1923.98 2304.95,1924.15C1820.63,1993.19 1336.61,2014.62 857.842,1988.23C868.33,1979.44 868.623,1976.48 874.512,1969.61Z" style="fill:white;fill-rule:nonzero;"/>
            </g>
        </g>
    </g>
</svg>
