<?xml version="1.0" encoding="UTF-8" standalone="no"?>
<!DOCTYPE svg PUBLIC "-//W3C//DTD SVG 1.1//EN" "http://www.w3.org/Graphics/SVG/1.1/DTD/svg11.dtd">
<svg width="100%" height="100%" viewBox="0 0 165 164" version="1.1" xmlns="http://www.w3.org/2000/svg" xmlns:xlink="http://www.w3.org/1999/xlink" xml:space="preserve" xmlns:serif="http://www.serif.com/" style="fill-rule:evenodd;clip-rule:evenodd;stroke-linecap:round;stroke-linejoin:round;stroke-miterlimit:1.5;">
    <g transform="matrix(1,0,0,1,-11413.4,-4343.29)">
        <g transform="matrix(1,0,0,1,-0.963255,0)">
            <g transform="matrix(1,0,0,1,9845.01,4248.76)">
                <circle cx="1652.65" cy="176.216" r="79.6" style="fill:none;stroke:rgb(179,179,179);stroke-width:4.17px;"/>
            </g>
        </g>
        <g transform="matrix(1,0,0,1,-0.963255,0)">
            <g transform="matrix(0.88953,0,0,0.88953,9780.26,2194.47)">
                <circle cx="1863.81" cy="2452.32" r="24.414" style="fill:white;stroke:rgb(179,179,179);stroke-width:4.68px;"/>
            </g>
        </g>
        <g transform="matrix(1,0,0,1,-0.963255,0)">
            <g transform="matrix(0.88953,0,0,0.88953,9896.15,2194.47)">
                <circle cx="1863.81" cy="2452.32" r="24.414" style="fill:white;stroke:rgb(179,179,179);stroke-width:4.68px;"/>
            </g>
        </g>
        <g transform="matrix(1,0,0,1,-0.963255,0)">
            <g transform="matrix(0.88953,0,0,0.88953,9780.26,2292.44)">
                <circle cx="1863.81" cy="2452.32" r="24.414" style="fill:white;stroke:rgb(179,179,179);stroke-width:4.68px;"/>
            </g>
        </g>
        <g transform="matrix(1,0,0,1,-0.963255,0)">
            <g transform="matrix(0.88953,0,0,0.88953,9896.15,2292.44)">
                <circle cx="1863.81" cy="2452.32" r="24.414" style="fill:white;stroke:rgb(179,179,179);stroke-width:4.68px;"/>
            </g>
        </g>
        <g transform="matrix(1,0,0,1,-0.963255,0)">
            <g transform="matrix(1,0,0,1,9571.33,1912.55)">
                <path d="M1950.73,2475.9C1950.73,2473.21 1949.66,2470.63 1947.76,2468.72C1945.85,2466.82 1943.27,2465.75 1940.58,2465.75C1931.18,2465.75 1917.26,2465.75 1907.86,2465.75C1905.17,2465.75 1902.59,2466.82 1900.68,2468.72C1898.78,2470.63 1897.71,2473.21 1897.71,2475.9C1897.71,2492.15 1897.71,2523.83 1897.71,2540.08C1897.71,2542.77 1898.78,2545.35 1900.68,2547.26C1902.59,2549.16 1905.17,2550.23 1907.86,2550.23C1917.26,2550.23 1931.18,2550.23 1940.58,2550.23C1943.27,2550.23 1945.85,2549.16 1947.76,2547.26C1949.66,2545.35 1950.73,2542.77 1950.73,2540.08C1950.73,2523.83 1950.73,2492.15 1950.73,2475.9Z" style="fill:white;stroke:rgb(179,179,179);stroke-width:4.17px;"/>
            </g>
        </g>
        <g transform="matrix(1,0,0,1,-0.963255,0)">
            <g transform="matrix(0.898699,0,0,0.777067,9764.29,2324.15)">
                <rect x="1896.91" y="2658.3" width="13.937" height="22.962" style="fill:white;stroke:rgb(179,179,179);stroke-width:4.96px;"/>
            </g>
        </g>
        <g transform="matrix(1,0,0,1,-0.963255,0)">
            <g transform="matrix(0.898699,0,0,0.777067,9804.78,2324.15)">
                <rect x="1896.91" y="2658.3" width="13.937" height="22.962" style="fill:white;stroke:rgb(179,179,179);stroke-width:4.96px;"/>
            </g>
        </g>
        <g transform="matrix(1,0,0,1,-0.963255,0)">
            <g transform="matrix(0.898699,0,0,0.777067,9764.29,2349.53)">
                <rect x="1896.91" y="2658.3" width="13.937" height="22.962" style="fill:white;stroke:rgb(179,179,179);stroke-width:4.96px;"/>
            </g>
        </g>
        <g transform="matrix(1,0,0,1,-0.963255,0)">
            <g transform="matrix(0.898699,0,0,0.777067,9804.78,2349.53)">
                <rect x="1896.91" y="2658.3" width="13.937" height="22.962" style="fill:white;stroke:rgb(179,179,179);stroke-width:4.96px;"/>
            </g>
        </g>
        <g transform="matrix(1,0,0,1,-0.963255,0)">
            <g transform="matrix(37.5,0,0,37.5,11425.4,4388.19)">
                <path d="M0.677,-0L0.602,-0C0.593,-0 0.586,-0.002 0.581,-0.007C0.575,-0.011 0.571,-0.016 0.569,-0.023L0.502,-0.196L0.18,-0.196L0.113,-0.023C0.111,-0.017 0.107,-0.012 0.101,-0.007C0.095,-0.002 0.088,-0 0.08,-0L0.005,-0L0.292,-0.717L0.39,-0.717L0.677,-0ZM0.207,-0.266L0.475,-0.266L0.362,-0.558C0.355,-0.576 0.347,-0.598 0.341,-0.625C0.337,-0.611 0.333,-0.599 0.33,-0.587C0.326,-0.576 0.323,-0.566 0.32,-0.557L0.207,-0.266Z" style="fill:rgb(179,179,179);fill-rule:nonzero;"/>
            </g>
        </g>
        <g transform="matrix(1,0,0,1,-0.963255,0)">
            <g transform="matrix(37.5,0,0,37.5,11542.2,4389.32)">
                <path d="M0.087,-0L0.087,-0.717L0.316,-0.717C0.36,-0.717 0.397,-0.712 0.429,-0.704C0.461,-0.695 0.487,-0.683 0.508,-0.667C0.528,-0.651 0.543,-0.631 0.553,-0.608C0.563,-0.585 0.568,-0.559 0.568,-0.53C0.568,-0.512 0.565,-0.495 0.56,-0.479C0.554,-0.462 0.546,-0.447 0.535,-0.433C0.524,-0.419 0.51,-0.407 0.493,-0.396C0.476,-0.385 0.456,-0.376 0.434,-0.369C0.486,-0.358 0.525,-0.339 0.552,-0.312C0.579,-0.285 0.592,-0.249 0.592,-0.204C0.592,-0.174 0.586,-0.146 0.575,-0.121C0.564,-0.096 0.548,-0.075 0.526,-0.057C0.505,-0.039 0.478,-0.025 0.447,-0.015C0.416,-0.005 0.381,-0 0.341,-0L0.087,-0ZM0.184,-0.327L0.184,-0.077L0.339,-0.077C0.367,-0.077 0.39,-0.08 0.41,-0.087C0.43,-0.093 0.446,-0.102 0.459,-0.113C0.472,-0.125 0.482,-0.138 0.488,-0.154C0.494,-0.17 0.497,-0.188 0.497,-0.207C0.497,-0.244 0.483,-0.273 0.457,-0.294C0.431,-0.316 0.392,-0.327 0.339,-0.327L0.184,-0.327ZM0.184,-0.396L0.312,-0.396C0.339,-0.396 0.363,-0.399 0.383,-0.405C0.403,-0.411 0.42,-0.419 0.433,-0.43C0.446,-0.44 0.456,-0.453 0.462,-0.468C0.468,-0.483 0.472,-0.5 0.472,-0.518C0.472,-0.56 0.459,-0.591 0.434,-0.611C0.408,-0.63 0.369,-0.64 0.316,-0.64L0.184,-0.64L0.184,-0.396Z" style="fill:rgb(179,179,179);fill-rule:nonzero;"/>
            </g>
        </g>
        <g transform="matrix(1,0,0,1,-0.963255,0)">
            <g transform="matrix(37.5,0,0,37.5,11541.8,4487.29)">
                <path d="M0.708,-0.358C0.708,-0.304 0.7,-0.256 0.683,-0.212C0.666,-0.167 0.642,-0.13 0.611,-0.099C0.58,-0.067 0.542,-0.043 0.499,-0.026C0.456,-0.009 0.408,-0 0.355,-0L0.087,-0L0.087,-0.717L0.355,-0.717C0.408,-0.717 0.456,-0.708 0.499,-0.691C0.542,-0.674 0.58,-0.649 0.611,-0.618C0.642,-0.586 0.666,-0.549 0.683,-0.505C0.7,-0.46 0.708,-0.412 0.708,-0.358ZM0.609,-0.358C0.609,-0.402 0.603,-0.441 0.591,-0.476C0.579,-0.511 0.562,-0.54 0.54,-0.564C0.518,-0.588 0.491,-0.606 0.46,-0.619C0.428,-0.632 0.393,-0.638 0.355,-0.638L0.185,-0.638L0.185,-0.079L0.355,-0.079C0.393,-0.079 0.428,-0.085 0.46,-0.098C0.491,-0.11 0.518,-0.128 0.54,-0.152C0.562,-0.176 0.579,-0.205 0.591,-0.24C0.603,-0.275 0.609,-0.314 0.609,-0.358Z" style="fill:rgb(179,179,179);fill-rule:nonzero;"/>
            </g>
        </g>
        <g transform="matrix(1,0,0,1,-0.963255,0)">
            <g transform="matrix(37.5,0,0,37.5,11424,4487.29)">
                <path d="M0.592,-0.148C0.597,-0.148 0.602,-0.146 0.607,-0.142L0.645,-0.1C0.615,-0.066 0.58,-0.04 0.538,-0.021C0.496,-0.002 0.446,0.008 0.387,0.008C0.335,0.008 0.288,-0.001 0.246,-0.019C0.204,-0.037 0.168,-0.062 0.139,-0.094C0.109,-0.126 0.086,-0.165 0.07,-0.21C0.053,-0.255 0.045,-0.304 0.045,-0.358C0.045,-0.412 0.054,-0.462 0.071,-0.507C0.089,-0.552 0.113,-0.59 0.145,-0.623C0.177,-0.655 0.215,-0.68 0.259,-0.698C0.303,-0.716 0.352,-0.725 0.405,-0.725C0.458,-0.725 0.503,-0.716 0.541,-0.7C0.579,-0.684 0.613,-0.662 0.643,-0.634L0.612,-0.589C0.609,-0.586 0.607,-0.583 0.604,-0.581C0.6,-0.579 0.596,-0.578 0.591,-0.578C0.586,-0.578 0.582,-0.579 0.577,-0.582C0.572,-0.585 0.566,-0.589 0.56,-0.594C0.553,-0.599 0.545,-0.604 0.536,-0.609C0.527,-0.614 0.516,-0.619 0.504,-0.624C0.492,-0.629 0.477,-0.633 0.461,-0.636C0.445,-0.639 0.426,-0.641 0.405,-0.641C0.366,-0.641 0.331,-0.634 0.299,-0.621C0.267,-0.608 0.24,-0.589 0.217,-0.565C0.194,-0.54 0.176,-0.511 0.163,-0.476C0.15,-0.44 0.144,-0.401 0.144,-0.358C0.144,-0.313 0.15,-0.274 0.163,-0.239C0.176,-0.204 0.194,-0.174 0.216,-0.15C0.238,-0.126 0.264,-0.107 0.295,-0.095C0.325,-0.082 0.358,-0.076 0.393,-0.076C0.414,-0.076 0.433,-0.077 0.45,-0.079C0.467,-0.082 0.483,-0.086 0.497,-0.091C0.512,-0.096 0.525,-0.103 0.538,-0.111C0.55,-0.119 0.563,-0.129 0.576,-0.141C0.581,-0.146 0.587,-0.148 0.592,-0.148Z" style="fill:rgb(179,179,179);fill-rule:nonzero;"/>
            </g>
        </g>
        <g transform="matrix(1,0,0,1,-0.963255,0)">
            <g transform="matrix(1,0,0,1,9570,1726.43)">
                <circle cx="1965.06" cy="2698" r="3.306" style="fill:rgb(179,179,179);"/>
            </g>
        </g>
        <g transform="matrix(1,0,0,1,-0.963255,0)">
            <g transform="matrix(1,0,0,1,9466.54,1726.43)">
                <circle cx="1965.06" cy="2698" r="3.306" style="fill:rgb(179,179,179);"/>
            </g>
        </g>
        <g transform="matrix(1,0,0,1,-0.963255,0)">
            <g transform="matrix(1,0,0,1,9581.81,1726.43)">
                <circle cx="1965.06" cy="2698" r="3.306" style="fill:rgb(179,179,179);"/>
            </g>
        </g>
        <g transform="matrix(1,0,0,1,-0.963255,0)">
            <g transform="matrix(1,0,0,1,9478.35,1726.43)">
                <circle cx="1965.06" cy="2698" r="3.306" style="fill:rgb(179,179,179);"/>
            </g>
        </g>
        <g transform="matrix(1,0,0,1,-0.963255,0)">
            <g transform="matrix(1,0,0,1,9594.62,1726.43)">
                <circle cx="1965.06" cy="2698" r="3.306" style="fill:rgb(179,179,179);"/>
            </g>
        </g>
        <g transform="matrix(1,0,0,1,-0.963255,0)">
            <g transform="matrix(1,0,0,1,9491.16,1726.43)">
                <circle cx="1965.06" cy="2698" r="3.306" style="fill:rgb(179,179,179);"/>
            </g>
        </g>
    </g>
</svg>
